<svg width="118" height="34" viewBox="0 0 118 34" fill="none" xmlns="http://www.w3.org/2000/svg">
<path d="M30.312 9.2H42.672V12.368H38.136V26H34.824V12.368H30.312V9.2ZM47.8329 19.064V22.832H54.9129V26H44.5209V9.2H54.7929V12.368H47.8329V15.944H54.1929V19.064H47.8329ZM70.0395 26H66.4635L63.0795 20.168H60.5595V26H57.2475V9.2H63.9675C65.5195 9.2 66.8395 9.744 67.9275 10.832C69.0155 11.92 69.5595 13.232 69.5595 14.768C69.5595 15.808 69.2635 16.776 68.6715 17.672C68.0795 18.552 67.2955 19.216 66.3195 19.664L70.0395 26ZM63.9675 12.296H60.5595V17.264H63.9675C64.5915 17.264 65.1275 17.024 65.5755 16.544C66.0235 16.048 66.2475 15.456 66.2475 14.768C66.2475 14.08 66.0235 13.496 65.5755 13.016C65.1275 12.536 64.5915 12.296 63.9675 12.296ZM85.0217 9.2H88.4297V26H85.1417V15.104L80.4137 22.904H80.0297L75.3017 15.128V26H71.9897V9.2H75.3977L80.2217 17.144L85.0217 9.2ZM94.872 19.064V22.832H101.952V26H91.56V9.2H101.832V12.368H94.872V15.944H101.232V19.064H94.872ZM110.959 17.36L117.415 26H113.599L107.599 18.128V26H104.287V9.2H107.599V16.616L113.359 9.2H117.175L110.959 17.36Z" fill="white"/>
<g clip-path="url(#clip0)">
<path d="M22.3853 5.28906L9.38531 12.6162V26.0002H11.9198V14.0443L24.9198 6.71713L22.3853 5.28906Z" fill="#EFF5F9"/>
<path d="M17.6948 2.64453L4.69482 9.9717V26.0001H7.22508V11.3998L20.2166 4.07675L17.6948 2.64453Z" fill="#EFF5F9"/>
<path d="M13 0L0 7.32716V26H2.53026V8.75108L15.526 1.42807L13 0Z" fill="#EFF5F9"/>
<path d="M26 8.54346L14.0801 15.2645V25.9999H16.6104V16.6884L19.651 14.9739C21.6964 13.8198 23.7419 12.6699 25.7874 11.5158L26 11.3954V10.6357C26 10.1791 26 9.72245 26 9.26164V8.54346Z" fill="#EFF5F9"/>
<path d="M18.9876 17.7885L18.7749 17.9089V25.9999H21.3052V19.3328L26 16.6884V13.8364L25.3621 14.1976C23.2358 15.3932 21.1096 16.5888 18.9876 17.7885Z" fill="#EFF5F9"/>
<path d="M23.4697 26.0002H26V19.1255L23.4697 20.5536V26.0002Z" fill="#EFF5F9"/>
</g>
<defs>
<clipPath id="clip0">
<rect width="26" height="26" fill="white"/>
</clipPath>
</defs>
</svg>
